<svg xmlns="http://www.w3.org/2000/svg" width="980" height="560" viewBox="0 0 980 560">
<rect width="100%" height="100%" fill="white"/>
<style>text{font-family:Arial,Helvetica,sans-serif;fill:#222}.grid{stroke:#ddd;stroke-width:1}.axis{stroke:#222;stroke-width:1.3}</style>
<text x="490.0" y="30" text-anchor="middle" font-size="18">Performance Metrics</text>
<line class="grid" x1="80" y1="440.0" x2="950" y2="440.0"/>
<text x="72" y="444.0" text-anchor="end" font-size="11">0.0</text>
<line class="grid" x1="80" y1="344.5" x2="950" y2="344.5"/>
<text x="72" y="348.5" text-anchor="end" font-size="11">159.4</text>
<line class="grid" x1="80" y1="249.0" x2="950" y2="249.0"/>
<text x="72" y="253.0" text-anchor="end" font-size="11">318.7</text>
<line class="grid" x1="80" y1="153.5" x2="950" y2="153.5"/>
<text x="72" y="157.5" text-anchor="end" font-size="11">478.1</text>
<line class="grid" x1="80" y1="58.0" x2="950" y2="58.0"/>
<text x="72" y="62.0" text-anchor="end" font-size="11">637.4</text>
<line class="axis" x1="80" y1="440" x2="950" y2="440"/>
<line class="axis" x1="80" y1="58" x2="80" y2="440"/>
<rect x="161.0" y="98.9" width="29.0" height="341.1" fill="#1f77b4" opacity="0.88"/>
<rect x="193.0" y="439.8" width="29.0" height="0.2" fill="#d62728" opacity="0.88"/>
<rect x="225.0" y="392.9" width="29.0" height="47.1" fill="#2ca02c" opacity="0.88"/>
<rect x="257.0" y="154.1" width="29.0" height="285.9" fill="#ff7f0e" opacity="0.88"/>
<text x="225.0" y="464" text-anchor="middle" font-size="12">Completed Tasks</text>
<rect x="451.0" y="120.9" width="29.0" height="319.1" fill="#1f77b4" opacity="0.88"/>
<rect x="483.0" y="439.8" width="29.0" height="0.2" fill="#d62728" opacity="0.88"/>
<rect x="515.0" y="394.9" width="29.0" height="45.1" fill="#2ca02c" opacity="0.88"/>
<rect x="547.0" y="170.5" width="29.0" height="269.5" fill="#ff7f0e" opacity="0.88"/>
<text x="515.0" y="464" text-anchor="middle" font-size="12">Cache Hits</text>
<rect x="741.0" y="402.4" width="29.0" height="37.6" fill="#1f77b4" opacity="0.88"/>
<rect x="773.0" y="462.6" width="29.0" height="-22.6" fill="#d62728" opacity="0.88"/>
<rect x="805.0" y="453.7" width="29.0" height="-13.7" fill="#2ca02c" opacity="0.88"/>
<rect x="837.0" y="450.4" width="29.0" height="-10.4" fill="#ff7f0e" opacity="0.88"/>
<text x="805.0" y="464" text-anchor="middle" font-size="12">Reward</text>
<rect x="100" y="498" width="14" height="14" fill="#1f77b4"/>
<text x="120" y="510" font-size="12">Baseline PPO</text>
<rect x="310" y="498" width="14" height="14" fill="#d62728"/>
<text x="330" y="510" font-size="12">Safe-A Hard</text>
<rect x="520" y="498" width="14" height="14" fill="#2ca02c"/>
<text x="540" y="510" font-size="12">Safe-B Soft</text>
<rect x="730" y="498" width="14" height="14" fill="#ff7f0e"/>
<text x="750" y="510" font-size="12">Safe-C Balanced</text>
</svg>